<?xml version="1.0" encoding="UTF-8"?>
<svg version="1.1" xmlns="http://www.w3.org/2000/svg" width="500" height="500">
<path d="M0 0 C0.76441406 0.52464844 1.52882813 1.04929687 2.31640625 1.58984375 C2.87199219 2.05519531 3.42757812 2.52054688 4 3 C4 3.66 4 4.32 4 5 C4.56976563 5.21914062 5.13953125 5.43828125 5.7265625 5.6640625 C15.52900331 11.42425968 22.1084907 26.92341162 24.8125 37.3125 C25.22848617 39.20401356 25.62713772 41.09951538 26 43 C26.226875 44.155 26.45375 45.31 26.6875 46.5 C26.9795346 49.77078751 27.03061801 52.93707046 27.01953125 56.21875 C27.01671143 57.30091797 27.0138916 58.38308594 27.01098633 59.49804688 C27.00736084 60.32369141 27.00373535 61.14933594 27 62 C27.97759277 61.97905273 28.95518555 61.95810547 29.96240234 61.93652344 C33.6337993 61.8634228 37.30513372 61.81794958 40.97705078 61.78027344 C42.55789045 61.76031578 44.13865783 61.7331394 45.71923828 61.69824219 C63.36071805 61.31885553 63.36071805 61.31885553 71 66 C73.5 68.5 73.5 68.5 75 71 C75.391875 71.61875 75.78375 72.2375 76.1875 72.875 C77.32778516 75.85728427 77.63546488 78.84069561 78 82 C79.32 81.67 80.64 81.34 82 81 C82 80.34 82 79.68 82 79 C83.72827148 77.68725586 83.72827148 77.68725586 86.12109375 76.21484375 C86.97380859 75.68439453 87.82652344 75.15394531 88.70507812 74.60742188 C89.60677734 74.05634766 90.50847656 73.50527344 91.4375 72.9375 C93.20762262 71.84340411 94.97718435 70.74840006 96.74609375 69.65234375 C97.53685303 69.16757568 98.3276123 68.68280762 99.14233398 68.18334961 C100.93922146 67.13293931 100.93922146 67.13293931 102 66 C106.78737606 65.3076109 110.02748255 65.32519197 114.0625 68.125 C116.34890745 71.51773363 116.58482765 72.98975324 116 77 C115 79.875 115 79.875 114 82 C113.34 82 112.68 82 112 82 C112 82.66 112 83.32 112 84 C111.34 84 110.68 84 110 84 C110 84.66 110 85.32 110 86 C109.34 86 108.68 86 108 86 C107.74476563 86.58523437 107.48953125 87.17046875 107.2265625 87.7734375 C105.87805007 90.22137407 104.4111255 91.71866736 102.375 93.625 C98.3788105 97.48992781 95.01341638 101.66352893 91.6640625 106.09375 C90.84035156 107.03734375 90.84035156 107.03734375 90 108 C89.34 108 88.68 108 88 108 C87.731875 108.5775 87.46375 109.155 87.1875 109.75 C86 112 86 112 84.37890625 113.5703125 C82.20795613 117.39561271 83.14772344 120.88898821 83.75 125.125 C83.85054688 125.94871094 83.95109375 126.77242187 84.0546875 127.62109375 C84.53737386 131.95094019 84.53737386 131.95094019 86 136 C86.37783142 138.41138745 86.71176843 140.81348294 87.015625 143.234375 C87.21409684 144.7582425 87.41275406 146.28208586 87.61157227 147.8059082 C87.71543243 148.61130035 87.8192926 149.4166925 87.92630005 150.24649048 C89.57279296 162.98053838 91.36228193 175.66103201 93.5625 188.3125 C96.0392443 202.6139817 97.82983743 216.95063898 99.54174805 231.35961914 C100.00754556 235.05994238 100.5433902 238.74498082 101.09375 242.43359375 C103.78468339 261.02050712 101.63811502 276.52709121 90.52734375 292.05859375 C81.67760336 303.12693201 68.89713902 309.03433836 55 311 C48.87844834 311.2971661 42.7630266 311.27376942 36.63549805 311.25878906 C34.77188989 311.26150208 32.9082828 311.26506476 31.04467773 311.26940918 C26.00115047 311.27850031 20.95770534 311.27500194 15.9141767 311.26865101 C10.62269867 311.26357178 5.33122747 311.26828801 0.03974915 311.27142334 C-8.84810645 311.27505834 -17.73592876 311.27027711 -26.6237793 311.26074219 C-36.87739558 311.2498686 -47.13093224 311.25337715 -57.38454658 311.264395 C-66.20693016 311.27349317 -75.02928988 311.2747405 -83.85167664 311.26951766 C-89.11243282 311.26641056 -94.37315168 311.26595363 -99.63390541 311.27259064 C-104.58419869 311.27839997 -109.53439017 311.27430196 -114.48467255 311.26280212 C-116.29376494 311.26017421 -118.10286602 311.26088838 -119.91195488 311.26532745 C-132.85205796 311.29413334 -145.32068247 311.2905552 -157 305 C-157.65355469 304.65195312 -158.30710938 304.30390625 -158.98046875 303.9453125 C-170.47593956 297.29124756 -179.8133636 287.55678654 -183.875 274.75 C-186.98574231 262.61237968 -185.98829204 251.06255079 -184.5 238.75 C-184.41718781 238.05100586 -184.33437561 237.35201172 -184.24905396 236.63183594 C-182.43132122 221.3815634 -180.19242297 206.1907058 -177.9375 191 C-177.76605469 189.84463745 -177.59460938 188.6892749 -177.41796875 187.49890137 C-175.83952029 176.89596003 -174.24602457 166.29819306 -172.4453125 155.73046875 C-170.72529575 145.62190608 -169.33430899 135.46989531 -167.9375 125.3125 C-167.67925315 123.44983974 -167.42079024 121.58720941 -167.16210938 119.72460938 C-165.76295667 109.65408313 -165.76295667 109.65408313 -164.42211914 99.57568359 C-164.33398453 98.89926315 -164.24584991 98.22284271 -164.15504456 97.52592468 C-163.92576762 95.75612613 -163.70002392 93.98587081 -163.47460938 92.21557617 C-160.30819786 70.76248663 -160.30819786 70.76248663 -152 64 C-147.17606043 61.94458227 -142.70477493 61.73419939 -137.5390625 61.8046875 C-136.74849457 61.8075174 -135.95792664 61.81034729 -135.1434021 61.81326294 C-132.63710916 61.82439045 -130.13118355 61.84948074 -127.625 61.875 C-125.91797394 61.88503942 -124.21094223 61.89416359 -122.50390625 61.90234375 C-118.3357976 61.92430537 -114.16796092 61.95878329 -110 62 C-109.97478271 60.78248047 -109.94956543 59.56496094 -109.92358398 58.31054688 C-109.46301973 39.03101452 -103.8402031 22.6497298 -91 8 C-90.45601563 7.37222656 -89.91203125 6.74445313 -89.3515625 6.09765625 C-65.54130505 -19.51288896 -27.27071809 -19.04972365 0 0 Z M-69 15 C-69 15.66 -69 16.32 -69 17 C-69.58910156 17.25652344 -70.17820312 17.51304688 -70.78515625 17.77734375 C-79.28327575 22.46854552 -84.01766072 33.01262595 -87.3125 41.6875 C-89.60260186 49.16514983 -89.60260186 49.16514983 -89 62 C-57.32 62 -25.64 62 7 62 C7 46.28289788 3.83921273 34.23253475 -6 22 C-6.66 22 -7.32 22 -8 22 C-8 21.34 -8 20.68 -8 20 C-14.30635366 14.46095933 -21.06241996 10.62117848 -29 8 C-29.99 7.67 -30.98 7.34 -32 7 C-45.90492612 5.7115195 -57.0797742 7.58297061 -69 15 Z " fill="#FCBE02" transform="translate(293,92)"/>
<path d="M0 0 C3.70395622 0.04725941 4.62633829 0.28919392 7.8125 2.5 C10.09890745 5.89273363 10.33482765 7.36475324 9.75 11.375 C8.75 14.25 8.75 14.25 7.75 16.375 C7.09 16.375 6.43 16.375 5.75 16.375 C5.75 17.035 5.75 17.695 5.75 18.375 C5.09 18.375 4.43 18.375 3.75 18.375 C3.75 19.035 3.75 19.695 3.75 20.375 C3.09 20.375 2.43 20.375 1.75 20.375 C1.49476563 20.96023437 1.23953125 21.54546875 0.9765625 22.1484375 C-0.37194993 24.59637407 -1.8388745 26.09366736 -3.875 28 C-7.8711895 31.86492781 -11.23658362 36.03852893 -14.5859375 40.46875 C-15.40964844 41.41234375 -15.40964844 41.41234375 -16.25 42.375 C-16.91 42.375 -17.57 42.375 -18.25 42.375 C-18.518125 42.9525 -18.78625 43.53 -19.0625 44.125 C-20.27929189 46.43050043 -21.55333879 48.39556192 -23.25 50.375 C-23.91 50.375 -24.57 50.375 -25.25 50.375 C-25.25 51.035 -25.25 51.695 -25.25 52.375 C-26.67578125 53.48828125 -26.67578125 53.48828125 -28.5625 54.6875 C-31.78938492 56.88204146 -33.37993583 58.91538129 -35.25 62.375 C-36.24 63.035 -37.23 63.695 -38.25 64.375 C-38.683125 65.096875 -39.11625 65.81875 -39.5625 66.5625 C-41.32362173 69.49770288 -43.31859968 71.85229542 -45.57421875 74.41015625 C-47.41216483 76.56513731 -49.10791891 78.80086627 -50.8125 81.0625 C-53.36877692 84.38510063 -55.93019752 86.80215308 -59.25 89.375 C-64.13433931 94.31393617 -64.13433931 94.31393617 -67.25 100.375 C-67.91 100.375 -68.57 100.375 -69.25 100.375 C-69.518125 101.096875 -69.78625 101.81875 -70.0625 102.5625 C-71.80363688 106.68624525 -73.75272212 110.48594436 -77.25 113.375 C-77.91 113.375 -78.57 113.375 -79.25 113.375 C-79.52199219 113.94605469 -79.79398438 114.51710938 -80.07421875 115.10546875 C-82.13017072 119.07393418 -84.72959527 122.69037883 -87.25 126.375 C-87.72308594 127.06980469 -88.19617188 127.76460938 -88.68359375 128.48046875 C-91.9964455 133.24822275 -91.9964455 133.24822275 -94.25 134.375 C-95.17535164 136.03425122 -96.09841045 137.69588001 -96.95703125 139.390625 C-98.71300159 142.08558854 -100.96956162 144.10766758 -103.25 146.375 C-105.21362018 148.65603851 -107.07885968 151.00807845 -108.9375 153.375 C-109.42283203 153.97828125 -109.90816406 154.5815625 -110.40820312 155.203125 C-112.9976235 158.48901017 -114.84711288 161.39080059 -116.25 165.375 C-118.20033193 168.06511301 -120.24410613 170.36926123 -122.625 172.6875 C-125.26730037 175.39271228 -127.40720361 178.2056438 -129.6328125 181.25 C-131.85535666 184.17044449 -134.2794707 186.88745282 -136.734375 189.61328125 C-138.4270583 191.50826795 -138.4270583 191.50826795 -140.25 194.375 C-145.08372119 197.99726225 -150.46840207 199.3141132 -156.44921875 199.07421875 C-165.57869438 196.79503306 -171.8107328 186.46737782 -177.25 179.375 C-178.7223659 177.55697114 -180.20172807 175.74458939 -181.6875 173.9375 C-183.97800997 171.14717085 -186.26595509 168.3553148 -188.5390625 165.55078125 C-192.81039149 160.28868007 -197.16545402 155.18200392 -201.81640625 150.25 C-203.25 148.375 -203.25 148.375 -203.25 145.375 C-204.13751953 145.00568359 -204.13751953 145.00568359 -205.04296875 144.62890625 C-207.61340885 143.16853232 -208.81051992 141.68331791 -210.5625 139.3125 C-211.1709375 138.50425781 -211.779375 137.69601562 -212.40625 136.86328125 C-213.0146875 136.04214844 -213.623125 135.22101563 -214.25 134.375 C-218.85543287 128.23804346 -223.75353717 122.54205058 -229.015625 116.953125 C-231.11544304 114.53025803 -232.62827268 112.12646994 -234.25 109.375 C-234.77207031 108.86195313 -235.29414063 108.34890625 -235.83203125 107.8203125 C-239.51600983 104.06529301 -240.43998511 97.89600437 -240.625 92.8125 C-240.35590272 86.63402639 -238.71203887 81.49849768 -234.5 76.875 C-229.87043797 73.3220803 -224.76491378 73.49487681 -219.12890625 73.71875 C-212.96653581 74.76132627 -208.01119729 77.35287746 -203.25 81.375 C-202.19822305 83.00948556 -201.18841206 84.67289525 -200.25 86.375 C-198.92151309 87.38142948 -197.58849671 88.38192179 -196.25 89.375 C-195.5662955 90.69967746 -194.90035814 92.03363633 -194.25 93.375 C-192.27742193 95.6196578 -190.56976273 97.19940148 -187.9453125 98.640625 C-184.74596589 100.69933499 -182.41926856 103.22555963 -179.9375 106.0625 C-178.97820066 107.13818192 -178.01725156 108.21239475 -177.0546875 109.28515625 C-176.34844238 110.07237061 -176.34844238 110.07237061 -175.62792969 110.87548828 C-173.07483192 113.65385938 -170.34800961 116.25384458 -167.61328125 118.8515625 C-166.25 120.375 -166.25 120.375 -166.25 122.375 C-165.693125 122.436875 -165.13625 122.49875 -164.5625 122.5625 C-162.25 123.375 -162.25 123.375 -159.8125 126 C-157.55058686 128.63709486 -157.55058686 128.63709486 -154.9453125 128.37109375 C-151.29762494 127.0230353 -149.13275311 124.61355134 -146.5625 121.8125 C-144.82632737 119.95182097 -143.07158553 118.15551919 -141.25 116.375 C-140.59 116.375 -139.93 116.375 -139.25 116.375 C-138.97414063 115.78332031 -138.69828125 115.19164062 -138.4140625 114.58203125 C-135.33870346 108.75123307 -130.34552899 104.47043986 -125.38671875 100.2578125 C-122.27437909 97.51531211 -119.40924245 94.54454311 -116.5 91.58984375 C-113.71001255 88.84344985 -110.77892284 86.30106024 -107.78125 83.78515625 C-106.13101722 82.43285369 -106.13101722 82.43285369 -105.25 80.375 C-104.59 80.375 -103.93 80.375 -103.25 80.375 C-102.92 79.385 -102.59 78.395 -102.25 77.375 C-100.82645965 76.45986692 -99.40087373 75.54775068 -97.96484375 74.65234375 C-96.02227834 73.20537589 -94.70771625 71.6341583 -93.1875 69.75 C-87.74019169 63.26165055 -80.59503381 58.56599283 -73.80859375 53.58203125 C-70.84428633 51.39395614 -68.17716513 49.30216513 -65.5625 46.6875 C-63.25 44.375 -63.25 44.375 -60.9375 43 C-57.67272195 41.02594816 -55.01573902 38.62104105 -52.17578125 36.0859375 C-43.49657534 28.375 -43.49657534 28.375 -39.25 28.375 C-39.25 27.715 -39.25 27.055 -39.25 26.375 C-37.50522851 25.00077362 -35.70284187 23.69913378 -33.875 22.4375 C-29.53388498 19.43993722 -29.53388498 19.43993722 -26.25 15.375 C-25.59 15.375 -24.93 15.375 -24.25 15.375 C-24.25 14.715 -24.25 14.055 -24.25 13.375 C-22.52172852 12.06225586 -22.52172852 12.06225586 -20.12890625 10.58984375 C-19.27619141 10.05939453 -18.42347656 9.52894531 -17.54492188 8.98242188 C-16.19237305 8.15581055 -16.19237305 8.15581055 -14.8125 7.3125 C-13.04237738 6.21840411 -11.27281565 5.12340006 -9.50390625 4.02734375 C-8.71314697 3.54257568 -7.9223877 3.05780762 -7.10766602 2.55834961 C-3.31552312 0.14272119 -3.31552312 0.14272119 0 0 Z " fill="#0283FA" transform="translate(399.25,157.625)"/>
<path d="M0 0 C1.6254308 0.14095064 3.25034051 0.28792087 4.875 0.4375 C5.77992188 0.51871094 6.68484375 0.59992188 7.6171875 0.68359375 C10 1 10 1 12 2 C14.64471483 2.10783622 17.26380069 2.15490171 19.90921021 2.15821838 C20.73579663 2.16315636 21.56238306 2.16809434 22.41401756 2.17318195 C25.19934945 2.18860883 27.9846582 2.19693158 30.77001953 2.20532227 C32.7604391 2.21489671 34.75085662 2.22490653 36.74127197 2.23532104 C42.15832306 2.26242313 47.57538292 2.28340392 52.99246454 2.30332303 C58.64862837 2.32514994 64.30476504 2.35255471 69.96090698 2.37937927 C80.67769724 2.42935081 91.39450254 2.47427306 102.11132228 2.51740164 C114.30946165 2.56673594 126.50757377 2.62166816 138.70568681 2.67708123 C163.8037658 2.79096975 188.90187091 2.89779378 214 3 C214 3.33 214 3.66 214 4 C209.34349402 4.91326669 204.83690799 5.14391892 200.10812378 5.13371277 C198.94319639 5.1371111 198.94319639 5.1371111 197.75473511 5.14057809 C195.16183287 5.14688972 192.56898328 5.14609054 189.97607422 5.14526367 C188.11290927 5.14825701 186.24974494 5.15165995 184.38658142 5.15544128 C179.3305038 5.16426963 174.2744431 5.16661896 169.21835852 5.16725707 C166.0559824 5.16796846 162.89361056 5.17010451 159.7312355 5.17275429 C148.68833392 5.18200523 137.6454444 5.18608966 126.60253906 5.18530273 C116.32683714 5.18470264 106.05118784 5.19524176 95.77549922 5.2110464 C86.94044177 5.22414848 78.10540145 5.22948548 69.27033436 5.22884732 C63.99946755 5.22859304 58.72864747 5.23140565 53.45779037 5.24202538 C48.49523357 5.25175081 43.53276772 5.2517552 38.5702076 5.24450874 C36.756277 5.24346827 34.9423406 5.24579358 33.12841988 5.2518692 C10.12355226 5.32388559 10.12355226 5.32388559 0 1 C0 0.67 0 0.34 0 0 Z " fill="#F6D369" transform="translate(140,398)"/>
<path d="M0 0 C0.495 1.98 0.495 1.98 1 4 C-0.39907593 4.029729 -0.39907593 4.029729 -1.82641602 4.06005859 C-5.31364365 4.13853043 -8.80047062 4.22523514 -12.28735352 4.31738281 C-13.79150623 4.35547489 -15.29574392 4.39036092 -16.80004883 4.421875 C-18.97247523 4.46795895 -21.14432655 4.52587654 -23.31640625 4.5859375 C-24.62037354 4.6173584 -25.92434082 4.6487793 -27.26782227 4.68115234 C-32.43192465 5.12233228 -37.41001188 5.86595972 -41.25 9.5625 C-44 12 -44 12 -47 13 C-46.98839844 13.63808594 -46.97679687 14.27617187 -46.96484375 14.93359375 C-46.95582031 15.75988281 -46.94679687 16.58617187 -46.9375 17.4375 C-46.92589844 18.26121094 -46.91429687 19.08492187 -46.90234375 19.93359375 C-47 22 -47 22 -48 23 C-49.77827574 29.59008067 -50.49302927 36.42981904 -51.21459961 43.20141602 C-51.71852645 47.64734228 -52.75008432 51.71317983 -54 56 C-54.55322398 59.33086937 -54.9969529 62.66434748 -55.4375 66.01171875 C-55.9487058 68.72749958 -56.61759043 70.63262361 -58 73 C-57.62975668 63.62901387 -56.73180076 54.54069179 -55.08666992 45.30444336 C-54.39803824 41.42999513 -53.80557927 37.61546688 -53.5 33.6875 C-52.68076976 24.21719844 -50.84233794 13.6731137 -44.6875 6.1875 C-39.44670349 1.9217354 -34.0769298 1.71547582 -27.5390625 1.8046875 C-26.74849457 1.8075174 -25.95792664 1.81034729 -25.1434021 1.81326294 C-22.63710916 1.82439045 -20.13118355 1.84948074 -17.625 1.875 C-15.91797394 1.88503942 -14.21094223 1.89416359 -12.50390625 1.90234375 C-8.3357976 1.92430537 -4.16796092 1.95878329 0 2 C0 1.34 0 0.68 0 0 Z " fill="#F5CA3B" transform="translate(183,152)"/>
<path d="M0 0 C-1.97575796 4.59139207 -5.25960919 8.27692912 -8.3671875 12.13476562 C-10.87574466 15.31499267 -12.64250492 18.19239184 -14 22 C-15.95033193 24.69011301 -17.99410613 26.99426123 -20.375 29.3125 C-23.01730037 32.01771228 -25.15720361 34.8306438 -27.3828125 37.875 C-29.60535666 40.79544449 -32.0294707 43.51245282 -34.484375 46.23828125 C-36.1770583 48.13326795 -36.1770583 48.13326795 -38 51 C-42.83070186 54.61999964 -48.19453892 55.90591214 -54.16796875 55.73046875 C-59.62727017 54.32234549 -63.46779769 50.2447724 -67 46 C-67 45.34 -67 44.68 -67 44 C-65.68 44 -64.36 44 -63 44 C-62.34 45.98 -61.68 47.96 -61 50 C-58.4580411 50.05434116 -55.91726318 50.0938339 -53.375 50.125 C-52.66214844 50.14175781 -51.94929687 50.15851563 -51.21484375 50.17578125 C-46.07924455 50.22289684 -41.43059412 49.84389899 -37.1875 46.625 C-35.83356844 44.77225155 -35.38746218 43.24728066 -35 41 C-34.01 41 -33.02 41 -32 41 C-32 39.68 -32 38.36 -32 37 C-31.34 37 -30.68 37 -30 37 C-30 35.68 -30 34.36 -30 33 C-28.68 33 -27.36 33 -26 33 C-26 32.01 -26 31.02 -26 30 C-25.34 30 -24.68 30 -24 30 C-24 29.01 -24 28.02 -24 27 C-22.68 26.67 -21.36 26.34 -20 26 C-19.67 24.35 -19.34 22.7 -19 21 C-17.68 20.67 -16.36 20.34 -15 20 C-14.67 18.35 -14.34 16.7 -14 15 C-13.34 15 -12.68 15 -12 15 C-11.67 13.35 -11.34 11.7 -11 10 C-10.01 10 -9.02 10 -8 10 C-8 8.68 -8 7.36 -8 6 C-7.01 5.67 -6.02 5.34 -5 5 C-4.6278958 3.67696283 -4.29369827 2.34262065 -4 1 C-2 0 -2 0 0 0 Z " fill="#1B61C3" transform="translate(297,301)"/>
<path d="M0 0 C0.99 0.33 1.98 0.66 3 1 C3 1.99 3 2.98 3 4 C3.66 4 4.32 4 5 4 C5.19585353 7.97880228 5.3802867 11.95805156 5.5625 15.9375 C5.64661133 17.64196289 5.64661133 17.64196289 5.73242188 19.38085938 C5.78076172 20.46044922 5.82910156 21.54003906 5.87890625 22.65234375 C5.94960327 24.15269165 5.94960327 24.15269165 6.02172852 25.68334961 C6 28 6 28 5 29 C2.35261911 29.09511266 -0.26859001 29.12555635 -2.91625977 29.11352539 C-3.74545929 29.11367142 -4.57465881 29.11381744 -5.4289856 29.1139679 C-8.18315198 29.11326851 -10.93725161 29.10547493 -13.69140625 29.09765625 C-15.59569766 29.09579216 -17.49998955 29.09436822 -19.40428162 29.09336853 C-24.42667963 29.08954263 -29.44904892 29.07971173 -34.47143555 29.06866455 C-39.5922812 29.05845198 -44.71313148 29.05387124 -49.83398438 29.04882812 C-59.88933557 29.03808953 -69.9446654 29.02101224 -80 29 C-80 28.67 -80 28.34 -80 28 C-52.28 28 -24.56 28 4 28 C3.2508448 16.17227951 3.2508448 16.17227951 0.62109375 5.20703125 C0 3 0 3 0 0 Z " fill="#F4BD1B" transform="translate(296,128)"/>
<path d="M0 0 C0.33 0 0.66 0 1 0 C7.49992058 41.00481813 7.49992058 41.00481813 2 57 C1.34 57.66 0.68 58.32 0 59 C0.16757812 57.72511719 0.33515625 56.45023437 0.5078125 55.13671875 C2.06871364 41.89528222 1.75053046 29.37066692 0.5078125 16.109375 C0.0084221 10.72273005 -0.12294223 5.40642267 0 0 Z " fill="#F1C851" transform="translate(390,313)"/>
<path d="M0 0 C-0.75 2.4375 -0.75 2.4375 -2 5 C-3.33333333 5.33333333 -4.66666667 5.66666667 -6 6 C-6.268125 6.70125 -6.53625 7.4025 -6.8125 8.125 C-8.32280565 11.78152948 -10.58719414 13.77302403 -13.44140625 16.44921875 C-15.10030545 17.93510225 -15.10030545 17.93510225 -16 20 C-16.66 20 -17.32 20 -18 20 C-18.2475 20.99 -18.495 21.98 -18.75 23 C-19.95812141 27.28095196 -21.90821294 31.09059215 -24 35 C-24.66 35 -25.32 35 -26 35 C-24.96312288 21.86622316 -14.41402054 10.38920312 -5 2 C-2 0 -2 0 0 0 Z " fill="#F5CA43" transform="translate(214,91)"/>
<path d="M0 0 C2.33817582 3.50726374 2.61938462 6.48969165 3.0625 10.5625 C3.4731575 15.42783869 3.4731575 15.42783869 5 20 C5.039992 21.99960012 5.04346799 24.00047242 5 26 C4.34 26 3.68 26 3 26 C2.6603981 24.12612523 2.32861309 22.25083303 2 20.375 C1.814375 19.33085937 1.62875 18.28671875 1.4375 17.2109375 C1.01284203 14.09425135 0.92454794 11.14069188 1 8 C-0.32 8 -1.64 8 -3 8 C-3.99 8 -4.98 8 -6 8 C-6 9.32 -6 10.64 -6 12 C-6.66 12 -7.32 12 -8 12 C-7.67 12.99 -7.34 13.98 -7 15 C-10.33333333 16.66666667 -13.66666667 18.33333333 -17 20 C-16.21718695 18.66144944 -15.42348123 17.32926356 -14.625 16 C-14.18414062 15.2575 -13.74328125 14.515 -13.2890625 13.75 C-12.86367188 13.1725 -12.43828125 12.595 -12 12 C-11.34 12 -10.68 12 -10 12 C-9.79375 11.278125 -9.5875 10.55625 -9.375 9.8125 C-7.52471012 6.02781616 -5.39759562 4.47741347 -2 2 C-1.34 2 -0.68 2 0 2 C0 1.34 0 0.68 0 0 Z " fill="#BA9E4E" transform="translate(374,208)"/>
<path d="M0 0 C0.75 1.5625 0.75 1.5625 1 4 C-1.08360193 8.32154473 -3.21679373 11.9490272 -7 15 C-7.99 15 -8.98 15 -10 15 C-10.33 15.99 -10.66 16.98 -11 18 C-11.99 18 -12.98 18 -14 18 C-14.33 19.32 -14.66 20.64 -15 22 C-15.99 22 -16.98 22 -18 22 C-17.34 20.35 -16.68 18.7 -16 17 C-15.34 17 -14.68 17 -14 17 C-13.90589844 16.42765625 -13.81179688 15.8553125 -13.71484375 15.265625 C-12.83488251 12.47667681 -11.50184848 10.92723114 -9.5625 8.75 C-8.94503906 8.04359375 -8.32757813 7.3371875 -7.69140625 6.609375 C-6 5 -6 5 -4 5 C-3.67 4.01 -3.34 3.02 -3 2 C-2.01 1.34 -1.02 0.68 0 0 Z " fill="#F0AF15" transform="translate(346,241)"/>
<path d="M0 0 C2.23231144 3.6827804 2.71006251 7.54079891 3.2890625 11.73046875 C3.39721283 12.48032547 3.50536316 13.23018219 3.61679077 14.00276184 C3.84364907 15.58835129 4.06701107 17.17444439 4.28710938 18.76098633 C4.62160912 21.16314886 4.97010373 23.56297406 5.3203125 25.96289062 C6.3737075 33.33118422 7.32708582 40.53727874 7 48 C6.67 48 6.34 48 6 48 C1.64222497 30.71078094 1.64222497 30.71078094 1.17578125 22.1015625 C1.06721846 19.80823431 1.06721846 19.80823431 0 17 C-0.07973476 15.66474283 -0.10771338 14.32587917 -0.09765625 12.98828125 C-0.09443359 12.23095703 -0.09121094 11.47363281 -0.08789062 10.69335938 C-0.07951172 9.90767578 -0.07113281 9.12199219 -0.0625 8.3125 C-0.05798828 7.51521484 -0.05347656 6.71792969 -0.04882812 5.89648438 C-0.0370585 3.93095743 -0.01912348 1.96546915 0 0 Z " fill="#F4C73B" transform="translate(383,265)"/>
<path d="M0 0 C0 0.66 0 1.32 0 2 C-5.75 5 -5.75 5 -8 5 C-8.33 5.99 -8.66 6.98 -9 8 C-10.65848177 9.01351664 -12.32665961 10.01120795 -14 11 C-15.2375 12.2375 -15.2375 12.2375 -16.5 13.5 C-19 16 -19 16 -21.37890625 17.41015625 C-24.05261846 19.03191611 -26.14981528 20.81293005 -28.4375 22.9375 C-31.8075567 25.99760166 -35.12763835 28.61700822 -39 31 C-38.67 29.02 -38.34 27.04 -38 25 C-36.576875 24.5359375 -36.576875 24.5359375 -35.125 24.0625 C-32.13919592 23.12605258 -32.13919592 23.12605258 -30 22 C-30 21.01 -30 20.02 -30 19 C-29.01 19 -28.02 19 -27 19 C-27 18.34 -27 17.68 -27 17 C-26.01 17 -25.02 17 -24 17 C-24 16.01 -24 15.02 -24 14 C-23.34 14 -22.68 14 -22 14 C-22 13.34 -22 12.68 -22 12 C-21.39671875 11.75765625 -20.7934375 11.5153125 -20.171875 11.265625 C-15.57953908 9.33980671 -12.43420171 7.66314849 -9 4 C-2.97260274 0 -2.97260274 0 0 0 Z " fill="#E8BD27" transform="translate(360,184)"/>
<path d="M0 0 C0.33 0 0.66 0 1 0 C1 3.96 1 7.92 1 12 C1.97759277 11.97905273 2.95518555 11.95810547 3.96240234 11.93652344 C7.6337993 11.8634228 11.30513372 11.81794958 14.97705078 11.78027344 C16.55789045 11.76031578 18.13865783 11.7331394 19.71923828 11.69824219 C28.89161489 11.50098678 36.72467577 11.42808309 45 16 C41.28483788 17.17196875 38.8785929 16.53630781 35.13671875 15.50714111 C31.78622144 14.71191482 28.42568568 14.64408331 25 14.5859375 C24.2788501 14.56657135 23.5577002 14.5472052 22.81469727 14.5272522 C20.54324647 14.46814737 18.27174305 14.42135225 16 14.375 C14.44659421 14.33675634 12.89320817 14.29770104 11.33984375 14.2578125 C7.56000698 14.16099704 3.78034435 14.08088575 0 14 C0 9.38 0 4.76 0 0 Z " fill="#F5E494" transform="translate(319,142)"/>
<path d="M0 0 C0 0.33 0 0.66 0 1 C-0.89195068 0.98428955 -1.78390137 0.9685791 -2.70288086 0.95239258 C-6.05206259 0.90088008 -9.40081566 0.86346553 -12.75024414 0.83520508 C-14.19236955 0.82023492 -15.63445036 0.79985132 -17.07641602 0.77368164 C-27.86240622 0.51938098 -27.86240622 0.51938098 -38.19921875 3.33203125 C-41.16803665 4.43326305 -43.87048535 4.19975625 -47 4 C-44.33743971 1.33743971 -41.92989592 0.94852564 -38.3125 -0.0625 C-37.11238281 -0.40410156 -35.91226563 -0.74570313 -34.67578125 -1.09765625 C-22.43283486 -4.10309792 -12.099426 -2.67813382 0 0 Z " fill="#F4CC4E" transform="translate(271,81)"/>
<path d="M0 0 C1.01058283 3.23537338 0.99200982 5.82985606 0.625 9.1875 C0.53476563 10.06792969 0.44453125 10.94835937 0.3515625 11.85546875 C0 14 0 14 -1 15 C-1.19168101 16.44360935 -1.32367596 17.89524063 -1.4296875 19.34765625 C-1.50123047 20.25596191 -1.57277344 21.16426758 -1.64648438 22.10009766 C-1.75959961 23.56648682 -1.75959961 23.56648682 -1.875 25.0625 C-3.9697236 50.01650383 -3.9697236 50.01650383 -8 57 C-7.62975668 47.62901387 -6.73180076 38.54069179 -5.08666992 29.30444336 C-4.39803824 25.42999513 -3.80557927 21.61546688 -3.5 17.6875 C-3.00419338 11.66397707 -1.45815815 5.85097421 0 0 Z " fill="#F1D867" transform="translate(133,168)"/>
<path d="M0 0 C3.34178396 1.11392799 3.66446424 1.59876859 5.5625 4.375 C8.13236395 7.95490997 10.92839753 11.15553475 13.9375 14.375 C17.89617779 18.65561845 21.31531345 23.04479874 24.52734375 27.90625 C25.88198466 29.83221161 27.28123795 31.3992425 29 33 C28.67 33.66 28.34 34.32 28 35 C22.58350203 30.71718765 18.29880572 26.24736281 14.75 20.3125 C11.40998728 14.83445366 7.49603235 9.58022771 3 5 C2.01 5 1.02 5 0 5 C0 3.35 0 1.7 0 0 Z " fill="#B9AE55" transform="translate(163,266)"/>
<path d="M0 0 C6.45131487 6.25582048 12.16851899 13.17290028 18 20 C17.67 20.66 17.34 21.32 17 22 C16.2575 21.505 15.515 21.01 14.75 20.5 C11.93681812 18.68076525 11.93681812 18.68076525 8 19 C7.49166409 17.75336669 6.99368855 16.50250613 6.5 15.25 C6.2215625 14.55390625 5.943125 13.8578125 5.65625 13.140625 C5 11 5 11 5 7 C4.01 6.67 3.02 6.34 2 6 C0.8125 2.9375 0.8125 2.9375 0 0 Z " fill="#D7B334" transform="translate(212,325)"/>
<path d="M0 0 C0.33 0 0.66 0 1 0 C1 5.61 1 11.22 1 17 C0.34 17 -0.32 17 -1 17 C-1 22.28 -1 27.56 -1 33 C-1.99 33.495 -1.99 33.495 -3 34 C-3.65555119 36.52733235 -3.65555119 36.52733235 -4 39 C-4.33 39 -4.66 39 -5 39 C-5.10358127 33.65520645 -4.78841883 28.73051299 -3.90625 23.4375 C-3.79526978 22.76074219 -3.68428955 22.08398438 -3.56994629 21.38671875 C-3.21926925 19.25677172 -2.85980803 17.12842146 -2.5 15 C-2.25852815 13.54306582 -2.01763762 12.08603518 -1.77734375 10.62890625 C-1.19160047 7.0847991 -0.59797808 3.54206589 0 0 Z " fill="#F4D054" transform="translate(122,239)"/>
<path d="M0 0 C4.03802083 3.76881944 5.75175149 6.16916722 6.5 11.6875 C6.665 12.780625 6.83 13.87375 7 15 C7.66 15.33 8.32 15.66 9 16 C0.738041 23.66742597 0.738041 23.66742597 -4 25 C-3.34 23.35 -2.68 21.7 -2 20 C-0.68 20 0.64 20 2 20 C2.05402274 17.89611431 2.09280256 15.79183286 2.125 13.6875 C2.14820313 12.51574219 2.17140625 11.34398437 2.1953125 10.13671875 C2.25320618 6.83606339 2.25320618 6.83606339 0 4 C0 2.68 0 1.36 0 0 Z " fill="#ECC144" transform="translate(364,159)"/>
<path d="M0 0 C0.66 0 1.32 0 2 0 C1.51020408 6.48979592 1.51020408 6.48979592 -0.9375 8.9375 C-3 10 -3 10 -5 10 C-5.33 11.32 -5.66 12.64 -6 14 C-7.32 14.33 -8.64 14.66 -10 15 C-10.0825 15.61875 -10.165 16.2375 -10.25 16.875 C-11 19 -11 19 -13.0625 20.25 C-13.701875 20.4975 -14.34125 20.745 -15 21 C-13.55118184 16.55532057 -11.08955683 13.41009767 -8.0625 9.9375 C-4.56072565 5.88319014 -4.56072565 5.88319014 -1.30859375 1.62890625 C-0.87675781 1.09136719 -0.44492187 0.55382812 0 0 Z " fill="#D3A536" transform="translate(299,299)"/>
<path d="M0 0 C1 2 1 2 0.14453125 4.6796875 C-0.29503906 5.73414063 -0.73460937 6.78859375 -1.1875 7.875 C-1.61417969 8.92429687 -2.04085938 9.97359375 -2.48046875 11.0546875 C-4.01466759 14.02843024 -5.44088859 15.86657249 -8 18 C-10.75 18.75 -10.75 18.75 -13 19 C-11.74809374 14.51400257 -10.20614467 11.40652872 -7 8 C-6.34 8 -5.68 8 -5 8 C-4.67 7.01 -4.34 6.02 -4 5 C-3.34 4.67 -2.68 4.34 -2 4 C-0.86649466 1.98330173 -0.86649466 1.98330173 0 0 Z " fill="#F3B416" transform="translate(327,263)"/>
<path d="M0 0 C0.66 0.33 1.32 0.66 2 1 C1.34 1.66 0.68 2.32 0 3 C-0.71408334 4.98356483 -1.38617742 6.98315437 -2 9 C-2.33 8.34 -2.66 7.68 -3 7 C-8.41893031 9.24687354 -12.29700831 12.51152523 -16 17 C-16.33 17.99 -16.66 18.98 -17 20 C-17.66 20 -18.32 20 -19 20 C-19.33 21.32 -19.66 22.64 -20 24 C-21.32 23.34 -22.64 22.68 -24 22 C-22.02603345 20.02603345 -20.0516343 18.05254482 -18.07421875 16.08203125 C-16.57167996 14.57383318 -15.09128989 13.04346304 -13.625 11.5 C-10.29318887 8.32684655 -6.72333417 5.51599672 -3.109375 2.671875 C-1.13248821 1.17080011 -1.13248821 1.17080011 0 0 Z " fill="#4E91A7" transform="translate(325,211)"/>
<path d="M0 0 C-0.45890625 0.556875 -0.9178125 1.11375 -1.390625 1.6875 C-7.83774552 9.70576753 -11.31976272 17.09124399 -14 27 C-15.03159626 23.90521121 -14.97482862 22.47368607 -14.5625 19.3125 C-14.46066406 18.50425781 -14.35882813 17.69601563 -14.25390625 16.86328125 C-14.17011719 16.24839844 -14.08632812 15.63351563 -14 15 C-13.34 15 -12.68 15 -12 15 C-12 13.68 -12 12.36 -12 11 C-11.34 11 -10.68 11 -10 11 C-10.061875 9.8553125 -10.061875 9.8553125 -10.125 8.6875 C-10 6 -10 6 -8 3 C-7.67 2.34 -7.34 1.68 -7 1 C-2.44155844 -1.22077922 -2.44155844 -1.22077922 0 0 Z " fill="#F5D368" transform="translate(219,113)"/>
<path d="M0 0 C-1.97575796 4.59139207 -5.25960919 8.27692912 -8.3671875 12.13476562 C-10.8828667 15.32402165 -12.57754918 18.21549781 -14 22 C-16.625 24.8125 -16.625 24.8125 -19 27 C-18.01 23.535 -18.01 23.535 -17 20 C-16.34 20 -15.68 20 -15 20 C-14.67 18.35 -14.34 16.7 -14 15 C-13.34 15 -12.68 15 -12 15 C-11.67 13.35 -11.34 11.7 -11 10 C-10.01 10 -9.02 10 -8 10 C-8 8.68 -8 7.36 -8 6 C-7.01 5.67 -6.02 5.34 -5 5 C-4.6278958 3.67696283 -4.29369827 2.34262065 -4 1 C-2 0 -2 0 0 0 Z " fill="#1663C8" transform="translate(297,301)"/>
<path d="M0 0 C4.2142655 7.22445514 4.27032622 14.89526829 4.125 23 C4.11597656 23.96550781 4.10695313 24.93101562 4.09765625 25.92578125 C4.07430635 28.28412099 4.04156047 30.64192286 4 33 C3.34 33 2.68 33 2 33 C1.66129817 29.00043584 1.33001275 25.00028974 1 21 C0.90460938 19.87464844 0.80921875 18.74929687 0.7109375 17.58984375 C0.22901393 11.70349155 -0.11580219 5.9059119 0 0 Z " fill="#EABD47" transform="translate(315,123)"/>
<path d="M0 0 C5.2262082 1.02076413 9.98126007 3.92275048 13.95996094 7.3828125 C13.95996094 8.3728125 13.95996094 9.3628125 13.95996094 10.3828125 C13.29996094 10.3828125 12.63996094 10.3828125 11.95996094 10.3828125 C11.95996094 9.7228125 11.95996094 9.0628125 11.95996094 8.3828125 C11.01121094 8.3003125 10.06246094 8.2178125 9.08496094 8.1328125 C5.95996094 7.3828125 5.95996094 7.3828125 4.58496094 5.3203125 C4.37871094 4.6809375 4.17246094 4.0415625 3.95996094 3.3828125 C2.63996094 3.3828125 1.31996094 3.3828125 -0.04003906 3.3828125 C-0.04003906 2.7228125 -0.04003906 2.0628125 -0.04003906 1.3828125 C-8.5261357 1.72973334 -8.5261357 1.72973334 -16.04003906 5.3828125 C-16.70003906 5.0528125 -17.36003906 4.7228125 -18.04003906 4.3828125 C-12.6064609 -0.78269539 -7.24647135 -0.76390328 0 0 Z " fill="#4994AC" transform="translate(182.0400390625,231.6171875)"/>
<path d="M0 0 C0.33 0 0.66 0 1 0 C1.02690104 2.79173055 1.04679053 5.58320348 1.0625 8.375 C1.07087891 9.1690625 1.07925781 9.963125 1.08789062 10.78125 C1.11328125 16.7734375 1.11328125 16.7734375 0 19 C-0.15306901 20.81171098 -0.24946661 22.6283794 -0.31640625 24.4453125 C-0.35830078 25.52167969 -0.40019531 26.59804688 -0.44335938 27.70703125 C-0.50233398 29.39892578 -0.50233398 29.39892578 -0.5625 31.125 C-0.60568359 32.26066406 -0.64886719 33.39632812 -0.69335938 34.56640625 C-0.7996604 37.37747768 -0.90169405 40.18863945 -1 43 C-1.33 43 -1.66 43 -2 43 C-3.79707288 32.66683095 -2.78123104 22.72873193 -1.5 12.375 C-1.35691406 11.18003906 -1.21382813 9.98507812 -1.06640625 8.75390625 C-0.71616907 5.83526309 -0.36059639 2.91737822 0 0 Z " fill="#F4D15C" transform="translate(110,319)"/>
<path d="M0 0 C0.66 0 1.32 0 2 0 C1.835 0.804375 1.67 1.60875 1.5 2.4375 C0.48893039 9.64137097 0.73733768 15.31051141 3.34375 22.15234375 C4 24 4 24 4 26 C3.34 26 2.68 26 2 26 C2 25.01 2 24.02 2 23 C1.34 23 0.68 23 0 23 C-2.20949832 18.58970217 -2.2370648 14.51059676 -2.125 9.6875 C-2.11597656 8.94693359 -2.10695312 8.20636719 -2.09765625 7.44335938 C-2.07424213 5.62876533 -2.03837615 3.81433929 -2 2 C-1.34 2 -0.68 2 0 2 C0 1.34 0 0.68 0 0 Z " fill="#D4C947" transform="translate(159,240)"/>
<path d="M0 0 C1.24546405 2.49092811 0.7767578 3.41080733 0 6 C-0.66 6 -1.32 6 -2 6 C-2.2475 6.99 -2.495 7.98 -2.75 9 C-3.95812141 13.28095196 -5.90821294 17.09059215 -8 21 C-8.66 21 -9.32 21 -10 21 C-9.37977927 13.14387069 -5.20602817 5.78447575 0 0 Z " fill="#F4D055" transform="translate(198,105)"/>
<path d="M0 0 C0.33 0.99 0.66 1.98 1 3 C1.66 3 2.32 3 3 3 C3.33 3.99 3.66 4.98 4 6 C-0.75 4.125 -0.75 4.125 -3 3 C-5.47178874 2.87554225 -7.90311169 2.8148408 -10.375 2.8125 C-11.04789063 2.80025391 -11.72078125 2.78800781 -12.4140625 2.77539062 C-16.11861843 2.76445198 -18.85490643 2.95972135 -22 5 C-22.33 4.01 -22.66 3.02 -23 2 C-15.39701733 -0.48260659 -7.89688807 -0.18508331 0 0 Z " fill="#DACA3D" transform="translate(187,230)"/>
<path d="M0 0 C0.13277344 1.05960938 0.26554687 2.11921875 0.40234375 3.2109375 C0.58053875 4.59898279 0.7589346 5.98700231 0.9375 7.375 C1.02451172 8.07367188 1.11152344 8.77234375 1.20117188 9.4921875 C1.66318128 13.36783575 1.66318128 13.36783575 3 17 C3.039992 18.99960012 3.04346799 21.00047242 3 23 C2.34 23 1.68 23 1 23 C0.6603981 21.12612523 0.32861309 19.25083303 0 17.375 C-0.2784375 15.80878906 -0.2784375 15.80878906 -0.5625 14.2109375 C-0.98715797 11.09425135 -1.07545206 8.14069188 -1 5 C-2.32 5 -3.64 5 -5 5 C-5.66 4.67 -6.32 4.34 -7 4 C-3.375 0 -3.375 0 0 0 Z " fill="#E9BA48" transform="translate(376,211)"/>
<path d="M0 0 C0.66 0.33 1.32 0.66 2 1 C-2.35215453 8.95393759 -2.35215453 8.95393759 -5 11 C-5.66 11 -6.32 11 -7 11 C-7.66 12.32 -8.32 13.64 -9 15 C-9.33 13.68 -9.66 12.36 -10 11 C-9.34 11 -8.68 11 -8 11 C-7.67 8.69 -7.34 6.38 -7 4 C-5.68 4.33 -4.36 4.66 -3 5 C-3 4.01 -3 3.02 -3 2 C-2.01 1.34 -1.02 0.68 0 0 Z " fill="#1B76D1" transform="translate(327,260)"/>
<path d="M0 0 C1.32 0 2.64 0 4 0 C4.66 1.98 5.32 3.96 6 6 C11.61 6.33 17.22 6.66 23 7 C21 9 21 9 18.3984375 9.1953125 C17.40070313 9.17210937 16.40296875 9.14890625 15.375 9.125 C13.87066406 9.09792969 13.87066406 9.09792969 12.3359375 9.0703125 C11.56507813 9.04710937 10.79421875 9.02390625 10 9 C10 8.34 10 7.68 10 7 C9.278125 7.103125 8.55625 7.20625 7.8125 7.3125 C3.8426297 6.8714033 2.49596932 4.99516318 0 2 C0 1.34 0 0.68 0 0 Z " fill="#0664E2" transform="translate(230,345)"/>
<path d="M0 0 C0.66 0.33 1.32 0.66 2 1 C1.505 1.391875 1.01 1.78375 0.5 2.1875 C-1.27229454 3.93690736 -1.27229454 3.93690736 -1 6.5625 C-1 7.366875 -1 8.17125 -1 9 C-4 11 -4 11 -8 11 C-9.70884005 12.62339805 -11.37446717 14.29319053 -13 16 C-15.3125 17.3125 -15.3125 17.3125 -17 18 C-17 17.34 -17 16.68 -17 16 C-15.56640625 14.58984375 -15.56640625 14.58984375 -13.5625 12.9375 C-8.77658299 8.87931634 -4.3885623 4.47999069 0 0 Z " fill="#3C89B2" transform="translate(285,247)"/>
<path d="M0 0 C1.65 0 3.3 0 5 0 C0.07380487 5.87419144 -4.90423882 11.29755566 -11 16 C-11 14.02 -11 12.04 -11 10 C-9.68 10.33 -8.36 10.66 -7 11 C-7 10.01 -7 9.02 -7 8 C-6.01 7.67 -5.02 7.34 -4 7 C-3.67 6.01 -3.34 5.02 -3 4 C-2.01 4 -1.02 4 0 4 C0 2.68 0 1.36 0 0 Z " fill="#DDBC32" transform="translate(263,264)"/>
<path d="M0 0 C3.63 0 7.26 0 11 0 C5.85714286 4.42857143 5.85714286 4.42857143 2 5 C2 5.66 2 6.32 2 7 C-0.5 8.625 -0.5 8.625 -3 10 C-3.33 8.68 -3.66 7.36 -4 6 C-1 4 -1 4 2 4 C2 3.34 2 2.68 2 2 C1.34 2 0.68 2 0 2 C0 1.34 0 0.68 0 0 Z " fill="#F6C93E" transform="translate(222,102)"/>
<path d="M0 0 C0 3.9478088 -1.33724565 5.18508826 -4 8 C-4.99 8 -5.98 8 -7 8 C-7 8.99 -7 9.98 -7 11 C-8.79133978 11.05391993 -10.58313899 11.09275571 -12.375 11.125 C-13.37273437 11.14820313 -14.37046875 11.17140625 -15.3984375 11.1953125 C-18 11 -18 11 -20 9 C-19.443125 8.97421875 -18.88625 8.9484375 -18.3125 8.921875 C-11.56299162 8.42022235 -5.62820421 6.95672974 -1 1.75 C-0.67 1.1725 -0.34 0.595 0 0 Z " fill="#B49950" transform="translate(262,347)"/>
<path d="M0 0 C0.33 0 0.66 0 1 0 C1.57446809 18.34042553 1.57446809 18.34042553 -2 27 C-2.33 27 -2.66 27 -3 27 C-3.17159443 20.82260045 -2.53731344 15.08370312 -1.5 9 C-1.35691406 8.12988281 -1.21382813 7.25976562 -1.06640625 6.36328125 C-0.71661973 4.24124305 -0.3591135 2.12047972 0 0 Z " fill="#F5D262" transform="translate(114,292)"/>
<path d="M0 0 C0.99 0.33 1.98 0.66 3 1 C3 1.99 3 2.98 3 4 C3.66 4 4.32 4 5 4 C5 11.59 5 19.18 5 27 C4.67 27 4.34 27 4 27 C3.96261719 26.18917969 3.92523438 25.37835938 3.88671875 24.54296875 C3.48664827 17.80452675 2.62189984 11.69454781 0.62109375 5.2421875 C0 3 0 3 0 0 Z " fill="#F4C845" transform="translate(296,128)"/>
<path d="M0 0 C4.84435994 -0.47493725 7.9563259 -0.72418203 12.0625 2.125 C14.34890745 5.51773363 14.58482765 6.98975324 14 11 C13 13.875 13 13.875 12 16 C11.34 15.67 10.68 15.34 10 15 C10.66 12.03 11.32 9.06 12 6 C11.01 6 10.02 6 9 6 C8.67 4.35 8.34 2.7 8 1 C3.545 1.495 3.545 1.495 -1 2 C-0.67 1.34 -0.34 0.68 0 0 Z " fill="#59ABEA" transform="translate(395,158)"/>
<path d="M0 0 C0.66 0.33 1.32 0.66 2 1 C1.401875 1.680625 0.80375 2.36125 0.1875 3.0625 C-2.23587643 6.31674834 -3.5252401 9.23936225 -5 13 C-5.99 13 -6.98 13 -8 13 C-8.33 14.32 -8.66 15.64 -9 17 C-9.99 17 -10.98 17 -12 17 C-11.34 15.35 -10.68 13.7 -10 12 C-9.34 12 -8.68 12 -8 12 C-7.90847656 11.42765625 -7.81695312 10.8553125 -7.72265625 10.265625 C-6.82311542 7.44544295 -5.43047759 5.92415738 -3.4375 3.75 C-2.47650391 2.69039062 -2.47650391 2.69039062 -1.49609375 1.609375 C-1.00238281 1.07828125 -0.50867188 0.5471875 0 0 Z " fill="#95946C" transform="translate(340,246)"/>
<path d="M0 0 C1.2065625 0.0309375 1.2065625 0.0309375 2.4375 0.0625 C1.22526447 2.81758074 -0.30701475 5.27171437 -2 7.75 C-2.41121094 8.35199219 -2.82242187 8.95398438 -3.24609375 9.57421875 C-4.5625 11.0625 -4.5625 11.0625 -7.5625 12.0625 C-7.5625 10.4125 -7.5625 8.7625 -7.5625 7.0625 C-6.9025 6.7325 -6.2425 6.4025 -5.5625 6.0625 C-5.5625 5.4025 -5.5625 4.7425 -5.5625 4.0625 C-4.5725 4.0625 -3.5825 4.0625 -2.5625 4.0625 C-2.8925 3.0725 -3.2225 2.0825 -3.5625 1.0625 C-2.5625 0.0625 -2.5625 0.0625 0 0 Z " fill="#2779C8" transform="translate(311.5625,279.9375)"/>
<path d="M0 0 C0.66 0.33 1.32 0.66 2 1 C-0.62918859 4.58525717 -2.49601428 7.05650346 -6.6875 8.6875 C-10.22926513 9.72725355 -10.22926513 9.72725355 -12 13 C-15.125 13.6875 -15.125 13.6875 -18 14 C-14.31216497 10.17557849 -10.42044101 6.94696068 -6 4 C-5.01 4 -4.02 4 -3 4 C-3 3.34 -3 2.68 -3 2 C-2.01 1.34 -1.02 0.68 0 0 Z " fill="#1A8AD5" transform="translate(363,182)"/>
<path d="M0 0 C0.66 0 1.32 0 2 0 C3.23107719 7.72720775 4.2700558 15.1683819 4 23 C3.67 23 3.34 23 3 23 C1.14060121 15.21930149 -0.41467342 8.01701946 0 0 Z " fill="#EFC453" transform="translate(386,290)"/>
<path d="M0 0 C1 2 1 2 0.8125 4 C-0.27078988 6.6665597 -1.45141884 6.72570942 -4 8 C-5.80727898 9.90996528 -7.37619388 11.92513663 -9 14 C-10.32 13.67 -11.64 13.34 -13 13 C-11.71034824 11.62437146 -10.37310707 10.29233607 -9 9 C-8.34 9 -7.68 9 -7 9 C-6.773125 8.443125 -6.54625 7.88625 -6.3125 7.3125 C-4.64103234 4.36753316 -2.44723648 2.31843456 0 0 Z " fill="#4087B0" transform="translate(267,265)"/>
<path d="M0 0 C0 0.66 0 1.32 0 2 C-5.80814406 6.13023578 -10.90171508 7.1680722 -18 6 C-20.6875 4 -20.6875 4 -22 2 C-20.68 2 -19.36 2 -18 2 C-18 2.66 -18 3.32 -18 4 C-16.18674449 3.88648483 -14.37436643 3.75887039 -12.5625 3.625 C-11.55316406 3.55539062 -10.54382813 3.48578125 -9.50390625 3.4140625 C-8.26447266 3.20910156 -8.26447266 3.20910156 -7 3 C-6.67 2.34 -6.34 1.68 -6 1 C-3.911361 0.32624548 -2.19636905 0 0 0 Z " fill="#2863B4" transform="translate(258,350)"/>
<path d="M0 0 C0 0.66 0 1.32 0 2 C-5.75 5 -5.75 5 -8 5 C-8.33 5.99 -8.66 6.98 -9 8 C-10.65848177 9.01351664 -12.32665961 10.01120795 -14 11 C-15.7041054 12.62836738 -17.38025441 14.28769752 -19 16 C-19.33 15.34 -19.66 14.68 -20 14 C-18.74785524 10.24356571 -17.06193312 9.76791568 -13.6953125 7.96875 C-11.92314322 7.05470193 -11.92314322 7.05470193 -10.5 5.5 C-7.81904625 2.81904625 -3.83220444 0 0 0 Z " fill="#A6B162" transform="translate(360,184)"/>
<path d="M0 0 C0.99 0.33 1.98 0.66 3 1 C1.1442927 3.20006536 -0.72655022 5.22638669 -3 7 C-5.625 7.1875 -5.625 7.1875 -8 6 C-10.3125 3.4375 -10.3125 3.4375 -12 1 C-10.14375 1.309375 -10.14375 1.309375 -8.25 1.625 C-4.76852243 2.07937273 -3.05817256 1.81225041 0 0 Z " fill="#D8BE3B" transform="translate(249,280)"/>
<path d="M0 0 C0.33 0.66 0.66 1.32 1 2 C0.360625 2.721875 -0.27875 3.44375 -0.9375 4.1875 C-3.15838815 6.7763932 -3.15838815 6.7763932 -3.4375 9.5625 C-4.24717928 13.07111021 -6.07981362 14.00896384 -9 16 C-10.6502694 17.0268343 -12.31243867 18.03567924 -14 19 C-12.71011299 16.20118857 -11.31211319 14.03384579 -9.25 11.75 C-5.94149658 7.9933003 -2.95664377 4.03655266 0 0 Z " fill="#B39554" transform="translate(277,328)"/>
<path d="M0 0 C0.625 1.75 0.625 1.75 1 4 C0.5359375 4.8353125 0.5359375 4.8353125 0.0625 5.6875 C-1.4000616 8.87072231 -1.43139488 11.76510778 -1.625 15.25 C-1.69976562 16.51328125 -1.77453125 17.7765625 -1.8515625 19.078125 C-1.90054688 20.04234375 -1.94953125 21.0065625 -2 22 C-4.79376375 17.0580434 -4.85712601 12.11492137 -3.359375 6.671875 C-1.43963068 1.43963068 -1.43963068 1.43963068 0 0 Z " fill="#398FA6" transform="translate(163,237)"/>
<path d="M0 0 C0.33 0 0.66 0 1 0 C1.19528898 5.56573604 0.55085259 9.61762926 -1 15 C-1.45118919 18.65909475 -1.74728268 22.32229795 -2 26 C-2.33 26 -2.66 26 -3 26 C-3.30659554 16.84755529 -3.49409003 8.65203245 0 0 Z " fill="#F4D469" transform="translate(187,126)"/>
<path d="M0 0 C0.65226563 0.42152344 1.30453125 0.84304688 1.9765625 1.27734375 C8.50098463 5.44023986 8.50098463 5.44023986 16 7 C16 7.33 16 7.66 16 8 C8.57142857 8.14285714 8.57142857 8.14285714 5 7 C5 7.66 5 8.32 5 9 C3.68 9 2.36 9 1 9 C1 8.34 1 7.68 1 7 C1.66 6.67 2.32 6.34 3 6 C3 5.34 3 4.68 3 4 C2.34 4 1.68 4 1 4 C0.67 2.68 0.34 1.36 0 0 Z " fill="#E5B521" transform="translate(234,351)"/>
<path d="M0 0 C0 1.65 0 3.3 0 5 C-1.32 5 -2.64 5 -4 5 C-4 5.66 -4 6.32 -4 7 C-9.2734375 10.22265625 -9.2734375 10.22265625 -11 11 C-11.66 10.67 -12.32 10.34 -13 10 C-3.28571429 0 -3.28571429 0 0 0 Z " fill="#3391BC" transform="translate(340,200)"/>
<path d="M0 0 C0.66 0.33 1.32 0.66 2 1 C1.67 1.66 1.34 2.32 1 3 C0.34 3 -0.32 3 -1 3 C-1 3.66 -1 4.32 -1 5 C-7.75 8 -7.75 8 -10 8 C-10.33 8.99 -10.66 9.98 -11 11 C-12.32 10.67 -13.64 10.34 -15 10 C-10.05 6.7 -5.1 3.4 0 0 Z " fill="#5BACE9" transform="translate(392,160)"/>
<path d="M0 0 C3.3 0 6.6 0 10 0 C10 0.66 10 1.32 10 2 C9.34 2 8.68 2 8 2 C9.32 3.65 10.64 5.3 12 7 C8.63667486 7 7.64696728 6.39455845 4.875 4.625 C4.17117187 4.18414062 3.46734375 3.74328125 2.7421875 3.2890625 C1 2 1 2 0 0 Z " fill="#F9C730" transform="translate(127,390)"/>
<path d="M0 0 C4.70478962 3.42166518 8.27653164 7.57905197 12 12 C9 13 9 13 6 12 C6 11.01 6 10.02 6 9 C5.34 9 4.68 9 4 9 C4 8.01 4 7.02 4 6 C3.34 6 2.68 6 2 6 C1.34 4.02 0.68 2.04 0 0 Z " fill="#3B8EAF" transform="translate(211,256)"/>
<path d="M0 0 C0.66796875 1.73828125 0.66796875 1.73828125 1 4 C-0.07421875 6.10546875 -0.07421875 6.10546875 -1.6875 8.1875 C-2.46673828 9.22970703 -2.46673828 9.22970703 -3.26171875 10.29296875 C-5.1820006 12.17872868 -6.37279968 12.61650889 -9 13 C-7.50923566 9.7173068 -5.61379679 7.06922559 -3.375 4.25 C-2.74335938 3.45078125 -2.11171875 2.6515625 -1.4609375 1.828125 C-0.97882813 1.22484375 -0.49671875 0.6215625 0 0 Z " fill="#BE9F50" transform="translate(356,228)"/>
<path d="M0 0 C4.77135213 3.57851409 7.29076328 6.68572797 10 12 C8.125 11.8125 8.125 11.8125 6 11 C5.33333333 9.33333333 4.66666667 7.66666667 4 6 C1.95894361 5.11306697 1.95894361 5.11306697 0 5 C0 3.35 0 1.7 0 0 Z " fill="#C6AD47" transform="translate(202,313)"/>
<path d="M0 0 C2.04119788 1.61594832 4.04072937 3.2856382 6 5 C6 5.66 6 6.32 6 7 C6.61875 7.103125 7.2375 7.20625 7.875 7.3125 C10 8 10 8 12 11 C11.2575 10.649375 10.515 10.29875 9.75 9.9375 C6.8677274 8.95490707 5.78823655 8.9673198 3 10 C3.33 8.68 3.66 7.36 4 6 C3.01 6 2.02 6 1 6 C0.67 4.02 0.34 2.04 0 0 Z " fill="#318CC0" transform="translate(227,273)"/>
<path d="M0 0 C0.66 0.33 1.32 0.66 2 1 C2 2.33333333 2 3.66666667 2 5 C-3.47619048 10 -3.47619048 10 -6 10 C-6 10.99 -6 11.98 -6 13 C-6.66 13 -7.32 13 -8 13 C-6.40956621 7.91061189 -3.2553049 4.12543357 0 0 Z " fill="#E7AD24" transform="translate(285,319)"/>
<path d="M0 0 C2.99324263 1.0975223 3.84610901 1.67682892 5.25 4.625 C5.4975 5.40875 5.745 6.1925 6 7 C7.32 7 8.64 7 10 7 C10.66 9.64 11.32 12.28 12 15 C7.47619711 10.75036698 3.61682339 6.04479113 0 1 C0 0.67 0 0.34 0 0 Z " fill="#277BC2" transform="translate(206,316)"/>
<path d="M0 0 C1.8125 0.1875 1.8125 0.1875 4 1 C4.4434375 1.7425 4.886875 2.485 5.34375 3.25 C7.15035347 6.24964349 9.17987331 8.37755814 11.6875 10.8125 C12.49574219 11.60269531 13.30398437 12.39289063 14.13671875 13.20703125 C14.75160156 13.79871094 15.36648437 14.39039063 16 15 C15.67 15.66 15.34 16.32 15 17 C12.67934614 14.73737364 10.36996401 12.46356994 8.0625 10.1875 C7.40314453 9.54490234 6.74378906 8.90230469 6.06445312 8.24023438 C5.43603516 7.61826172 4.80761719 6.99628906 4.16015625 6.35546875 C3.57886963 5.78465576 2.99758301 5.21384277 2.39868164 4.62573242 C1 3 1 3 0 0 Z " fill="#CABB50" transform="translate(215,259)"/>
<path d="M0 0 C1.01058283 3.23537338 0.99200982 5.82985606 0.625 9.1875 C0.53476563 10.06792969 0.44453125 10.94835937 0.3515625 11.85546875 C0 14 0 14 -1 15 C-1.39666227 17.18019479 -1.74315237 19.3696463 -2.0625 21.5625 C-2.32740234 23.35880859 -2.32740234 23.35880859 -2.59765625 25.19140625 C-2.73042969 26.11824219 -2.86320313 27.04507813 -3 28 C-3.33 28 -3.66 28 -4 28 C-3.61141574 18.31219237 -2.52160461 9.40447504 0 0 Z " fill="#F6DE7D" transform="translate(133,168)"/>
<path d="M0 0 C0.83144531 0.00451172 1.66289062 0.00902344 2.51953125 0.01367188 C4.55471897 0.02536836 6.58986923 0.04330065 8.625 0.0625 C8.625 0.3925 8.625 0.7225 8.625 1.0625 C7.15740234 1.13597656 7.15740234 1.13597656 5.66015625 1.2109375 C-1.53748379 1.62142238 -8.37803049 2.22119223 -15.375 4.0625 C-15.375 3.0725 -15.375 2.0825 -15.375 1.0625 C-10.20182579 -0.00059567 -5.25130664 -0.05443938 0 0 Z " fill="#F8D56A" transform="translate(248.375,97.9375)"/>
<path d="M0 0 C0 0.33 0 0.66 0 1 C-0.54527344 1.10957031 -1.09054688 1.21914062 -1.65234375 1.33203125 C-7.25535065 2.51009937 -12.6054387 4.087035 -18 6 C-18 5.34 -18 4.68 -18 4 C-11.97181491 -0.28670939 -7.28695785 -0.474377 0 0 Z " fill="#0E89E5" transform="translate(182,233)"/>
<path d="M0 0 C-0.92961422 1.15224028 -1.8690125 2.29659176 -2.8125 3.4375 C-3.59560547 4.39462891 -3.59560547 4.39462891 -4.39453125 5.37109375 C-6 7 -6 7 -9 8 C-9.3125 5.1875 -9.3125 5.1875 -9 2 C-5.72056384 -0.82395892 -4.03341913 -1.24967046 0 0 Z " fill="#F6D34D" transform="translate(147,156)"/>
<path d="M0 0 C4.55671592 1.51890531 8.31723292 3.95402262 12 7 C12 7.33 12 7.66 12 8 C10.35 8 8.7 8 7 8 C6.67 7.34 6.34 6.68 6 6 C4.02477154 4.95191959 2.02518491 3.9479589 0 3 C0 2.01 0 1.02 0 0 Z " fill="#F3CF4F" transform="translate(282,86)"/>
<path d="M0 0 C2.15059309 3.53186832 2.3797728 6.66287993 2.625 10.75 C2.69976562 11.92046875 2.77453125 13.0909375 2.8515625 14.296875 C2.90054687 15.18890625 2.94953125 16.0809375 3 17 C1 16 1 16 0 13 C-0.06937062 10.77181559 -0.08457084 8.54165476 -0.0625 6.3125 C-0.05347656 5.13300781 -0.04445313 3.95351563 -0.03515625 2.73828125 C-0.02355469 1.83464844 -0.01195312 0.93101562 0 0 Z " fill="#F5D161" transform="translate(383,265)"/>
<path d="M0 0 C0.66 0.33 1.32 0.66 2 1 C1.2884375 1.6496875 1.2884375 1.6496875 0.5625 2.3125 C-1.23686957 4.02309613 -1.23686957 4.02309613 -2 7 C-2.66 7 -3.32 7 -4 7 C-4.33 8.32 -4.66 9.64 -5 11 C-6.32 10.34 -7.64 9.68 -9 9 C-6.03 6.03 -3.06 3.06 0 0 Z " fill="#2587C4" transform="translate(310,224)"/>
<path d="M0 0 C1.98 0.66 3.96 1.32 6 2 C6 2.66 6 3.32 6 4 C6.66 4 7.32 4 8 4 C8 5.65 8 7.3 8 9 C1.42857143 3.85714286 1.42857143 3.85714286 0 0 Z " fill="#216BBD" transform="translate(222,336)"/>
<path d="M0 0 C1.32 0.33 2.64 0.66 4 1 C2.70982586 1.98113243 1.41780894 2.95984199 0.125 3.9375 C-0.59429687 4.48277344 -1.31359375 5.02804688 -2.0546875 5.58984375 C-4 7 -4 7 -6 8 C-6 6.02 -6 4.04 -6 2 C-4.02 2 -2.04 2 0 2 C0 1.34 0 0.68 0 0 Z " fill="#E7BC2A" transform="translate(317,215)"/>
<path d="M0 0 C0.33 0.99 0.66 1.98 1 3 C-1.64 2.67 -4.28 2.34 -7 2 C-7.33 2.99 -7.66 3.98 -8 5 C-8.99 4.67 -9.98 4.34 -11 4 C-7.65667474 -0.27945633 -5.29105716 -0.4070044 0 0 Z " fill="#1089EA" transform="translate(403,159)"/>
<path d="M0 0 C0 3 0 3 -1.53125 4.60546875 C-2.1809375 5.12753906 -2.830625 5.64960937 -3.5 6.1875 C-4.1496875 6.71730469 -4.799375 7.24710937 -5.46875 7.79296875 C-5.9740625 8.19128906 -6.479375 8.58960937 -7 9 C-6.3125 5.625 -6.3125 5.625 -5 2 C-2.375 0.5625 -2.375 0.5625 0 0 Z " fill="#F6C932" transform="translate(205,100)"/>
<path d="M0 0 C5.91492272 0.45224761 11.35199888 1.1582605 17 3 C17 3.33 17 3.66 17 4 C10.66606918 4.34548714 5.89738492 3.29342747 0 1 C0 0.67 0 0.34 0 0 Z " fill="#F6D167" transform="translate(140,398)"/>
<path d="M0 0 C1.485 0.99 1.485 0.99 3 2 C3 2.66 3 3.32 3 4 C4.32 4.66 5.64 5.32 7 6 C6.67 7.65 6.34 9.3 6 11 C5.34 11 4.68 11 4 11 C2.875 7.25 2.875 7.25 4 5 C3.34 5 2.68 5 2 5 C2 4.34 2 3.68 2 3 C1.34 3 0.68 3 0 3 C0 2.01 0 1.02 0 0 Z " fill="#F5B609" transform="translate(182,292)"/>
<path d="M0 0 C0.33 0.99 0.66 1.98 1 3 C-3.75 7.875 -3.75 7.875 -6 9 C-5.67 7.35 -5.34 5.7 -5 4 C-4.01 3.67 -3.02 3.34 -2 3 C-2 2.34 -2 1.68 -2 1 C-1.34 0.67 -0.68 0.34 0 0 Z " fill="#3474B7" transform="translate(303,292)"/>
<path d="M0 0 C0.69287109 0.01804688 1.38574219 0.03609375 2.09960938 0.0546875 C3.79617664 0.10148936 5.49202476 0.17322376 7.1875 0.25 C7.1875 0.58 7.1875 0.91 7.1875 1.25 C6.30707031 1.28738281 5.42664063 1.32476562 4.51953125 1.36328125 C3.35808594 1.42902344 2.19664062 1.49476563 1 1.5625 C-0.14855469 1.62050781 -1.29710937 1.67851562 -2.48046875 1.73828125 C-5.972673 2.27459867 -7.87134661 3.38500575 -10.8125 5.25 C-11.4725 4.92 -12.1325 4.59 -12.8125 4.25 C-8.72456123 0.21762544 -5.52520739 -0.27493855 0 0 Z " fill="#58A098" transform="translate(176.8125,231.75)"/>
<path d="M0 0 C0.66 0.33 1.32 0.66 2 1 C-1.3 3.64 -4.6 6.28 -8 9 C-9 5 -9 5 -8 3 C-6.01751285 2.28293018 -4.01584651 1.61709587 -2 1 C-1.34 0.67 -0.68 0.34 0 0 Z " fill="#C9B543" transform="translate(330,206)"/>
<path d="M0 0 C0.66 0.33 1.32 0.66 2 1 C-6.261959 8.66742597 -6.261959 8.66742597 -11 10 C-10.4375 7.6875 -10.4375 7.6875 -9 5 C-5.5 3.3125 -5.5 3.3125 -2 2 C-1.34 1.34 -0.68 0.68 0 0 Z " fill="#8EA87F" transform="translate(371,174)"/>
<path d="M0 0 C0.66 0.33 1.32 0.66 2 1 C1.63030147 3.65614176 1.29524408 4.74758254 -0.77734375 6.51953125 C-1.49019531 6.94621094 -2.20304687 7.37289062 -2.9375 7.8125 C-3.64777344 8.25207031 -4.35804688 8.69164062 -5.08984375 9.14453125 C-6.03537109 9.56798828 -6.03537109 9.56798828 -7 10 C-7.66 9.67 -8.32 9.34 -9 9 C-7.47005208 7.76302083 -5.94010417 6.52604167 -4.41015625 5.2890625 C-2.86733563 4.0333609 -2.86733563 4.0333609 -2 2 C-1.34 2 -0.68 2 0 2 C0 1.34 0 0.68 0 0 Z " fill="#2E92DE" transform="translate(375,171)"/>
<path d="M0 0 C2.97 0 5.94 0 9 0 C9.66 1.98 10.32 3.96 11 6 C7.2089881 4.55049545 3.6125362 2.84827434 0 1 C0 0.67 0 0.34 0 0 Z " fill="#F6CF51" transform="translate(268,101)"/>
<path d="M0 0 C1.17487036 0.75827092 2.33972592 1.53207755 3.5 2.3125 C4.47453125 2.95638672 4.47453125 2.95638672 5.46875 3.61328125 C5.9740625 4.07089844 6.479375 4.52851563 7 5 C7 5.99 7 6.98 7 8 C6.01 8 5.02 8 4 8 C3.67 7.34 3.34 6.68 3 6 C2.01 5.67 1.02 5.34 0 5 C0 3.35 0 1.7 0 0 Z " fill="#3A90B4" transform="translate(196,242)"/>
<path d="M0 0 C-4.97504047 3.24900602 -7.88225104 4.49940808 -14 4 C-11.8244694 1.8244694 -10.44026108 1.28120447 -7.5625 0.3125 C-6.78003906 0.04050781 -5.99757812 -0.23148437 -5.19140625 -0.51171875 C-3 -1 -3 -1 0 0 Z " fill="#F5D662" transform="translate(238,81)"/>
<path d="M0 0 C-1.76132454 4.00301032 -4.26132483 7.6028977 -7 11 C-7.33 11 -7.66 11 -8 11 C-8 9.35 -8 7.7 -8 6 C-7.01 5.67 -6.02 5.34 -5 5 C-4.6278958 3.67696283 -4.29369827 2.34262065 -4 1 C-2 0 -2 0 0 0 Z " fill="#1967C4" transform="translate(297,301)"/>
<path d="M0 0 C3.48872415 1.16290805 4.09976864 2.13967609 6.1875 5.0625 C6.71730469 5.79597656 7.24710938 6.52945312 7.79296875 7.28515625 C8.19128906 7.85105469 8.58960938 8.41695313 9 9 C8.67 9.66 8.34 10.32 8 11 C6.79557292 9.4375 5.59114583 7.875 4.38671875 6.3125 C2.95508863 4.65629795 2.95508863 4.65629795 0 5 C0 3.35 0 1.7 0 0 Z " fill="#CDC449" transform="translate(163,266)"/>
<path d="M0 0 C-0.99 1.485 -0.99 1.485 -2 3 C-2.66 3 -3.32 3 -4 3 C-4 3.66 -4 4.32 -4 5 C-5.98 5.99 -5.98 5.99 -8 7 C-7.1875 3.5625 -7.1875 3.5625 -6 0 C-3 -1 -3 -1 0 0 Z " fill="#5198C9" transform="translate(378,205)"/>
<path d="M0 0 C-4.625 5.875 -4.625 5.875 -8 7 C-7.8125 4.125 -7.8125 4.125 -7 1 C-2.87058824 -1.43529412 -2.87058824 -1.43529412 0 0 Z " fill="#F6CD48" transform="translate(219,113)"/>
<path d="M0 0 C3 0 3 0 4.5 1.125 C6.44863428 3.56079285 7.68470896 6.1815192 9 9 C5.18063472 7.44396229 2.73955562 5.04395069 0 2 C0 1.34 0 0.68 0 0 Z " fill="#F6D65F" transform="translate(118,381)"/>
<path d="M0 0 C0.99 0 1.98 0 3 0 C1.50902342 3.7952131 -0.75700849 5.61042731 -4 8 C-4 6.02 -4 4.04 -4 2 C-2.68 2.33 -1.36 2.66 0 3 C0 2.01 0 1.02 0 0 Z " fill="#ECBF20" transform="translate(256,272)"/>
<path d="M0 0 C0 3.52100905 -0.58328868 4.10031314 -2.8125 6.6875 C-3.59560547 7.62142578 -3.59560547 7.62142578 -4.39453125 8.57421875 C-6 10 -6 10 -9 10 C-7.84906278 6.54718834 -6.6794007 5.61917837 -3.9375 3.3125 C-2.83728516 2.37857422 -2.83728516 2.37857422 -1.71484375 1.42578125 C-1.14894531 0.95527344 -0.58304687 0.48476563 0 0 Z " fill="#0D7FE4" transform="translate(277,257)"/>
<path d="M0 0 C4.875 2.625 4.875 2.625 6 6 C3.69 5.34 1.38 4.68 -1 4 C-1.33 4.66 -1.66 5.32 -2 6 C-1.125 1.125 -1.125 1.125 0 0 Z " fill="#1B88D6" transform="translate(203,250)"/>
<path d="M0 0 C1.98 0 3.96 0 6 0 C6 1.32 6 2.64 6 4 C6.66 4 7.32 4 8 4 C8 4.99 8 5.98 8 7 C3.8575633 5.61918777 2.67796901 3.40174442 0 0 Z " fill="#C7BD4F" transform="translate(203,249)"/>
<path d="M0 0 C0.99 0.33 1.98 0.66 3 1 C2.34 1 1.68 1 1 1 C1 1.66 1 2.32 1 3 C0.01 3.495 0.01 3.495 -1 4 C-1.99 5.485 -1.99 5.485 -3 7 C-4.32 6.34 -5.64 5.68 -7 5 C-5.90554162 4.13342884 -4.79902219 3.28207276 -3.6875 2.4375 C-3.07261719 1.96183594 -2.45773438 1.48617187 -1.82421875 0.99609375 C-1.22222656 0.66738281 -0.62023437 0.33867188 0 0 Z " fill="#F5D85B" transform="translate(221,85)"/>
<path d="M0 0 C1 2 1 2 0.3125 5.0625 C-1 8 -1 8 -3.125 8.875 C-3.74375 8.91625 -4.3625 8.9575 -5 9 C-3.90931332 5.22454612 -3.0916909 2.52956528 0 0 Z " fill="#C2A34A" transform="translate(319,273)"/>
<path d="M0 0 C0.33 0.66 0.66 1.32 1 2 C-2.14754098 8.64480874 -2.14754098 8.64480874 -5.25 9.9375 C-5.8275 9.958125 -6.405 9.97875 -7 10 C-7 9.34 -7 8.68 -7 8 C-6.34 8 -5.68 8 -5 8 C-4.67 7.01 -4.34 6.02 -4 5 C-3.34 4.67 -2.68 4.34 -2 4 C-0.86649466 1.98330173 -0.86649466 1.98330173 0 0 Z " fill="#AE9A57" transform="translate(327,263)"/>
<path d="M0 0 C0.66 0.33 1.32 0.66 2 1 C1.4375 2.9375 1.4375 2.9375 0 5 C-3.625 5.75 -3.625 5.75 -7 6 C-2.25 1.125 -2.25 1.125 0 0 Z " fill="#1087E0" transform="translate(347,195)"/>
<path d="M0 0 C2.96404505 2.80804268 5.44499019 5.18315774 7 9 C3.34683329 7.75023244 2.21934164 7.32901247 0 4 C0 2.68 0 1.36 0 0 Z " fill="#F3CF52" transform="translate(303,103)"/>
<path d="M0 0 C-1.28813342 0.83878455 -2.58063256 1.67086783 -3.875 2.5 C-4.59429687 2.9640625 -5.31359375 3.428125 -6.0546875 3.90625 C-8 5 -8 5 -10 5 C-10 4.01 -10 3.02 -10 2 C-8.68 2 -7.36 2 -6 2 C-6 1.34 -6 0.68 -6 0 C-2.25 -1.125 -2.25 -1.125 0 0 Z " fill="#F5D871" transform="translate(374,393)"/>
<path d="M0 0 C1.32 0 2.64 0 4 0 C5.0625 1.8125 5.0625 1.8125 6 4 C5.67 4.99 5.34 5.98 5 7 C3.29115995 5.37660195 1.62553283 3.70680947 0 2 C0 1.34 0 0.68 0 0 Z " fill="#2B6EB2" transform="translate(230,345)"/>
<path d="M0 0 C0 3 0 3 -1.25 4.75 C-3 6 -3 6 -5.1875 5.6875 C-5.785625 5.460625 -6.38375 5.23375 -7 5 C-4.63707344 2.47411298 -3.33537489 1.11179163 0 0 Z " fill="#3B8BB8" transform="translate(261,273)"/>
<path d="M0 0 C0.33 1.32 0.66 2.64 1 4 C-0.32 4.99 -1.64 5.98 -3 7 C-3.66 6.67 -4.32 6.34 -5 6 C-3.63016497 2.83884224 -3.0109362 2.0072908 0 0 Z " fill="#CDAB3F" transform="translate(346,241)"/>
<path d="M0 0 C4.24465971 0.27682563 6.81617671 1.18354094 10 4 C5.97007218 3.44687265 1.97977076 2.8441938 -2 2 C-1.34 1.34 -0.68 0.68 0 0 Z " fill="#F4D061" transform="translate(354,155)"/>
<path d="M0 0 C0.99 0.33 1.98 0.66 3 1 C3 1.66 3 2.32 3 3 C3.928125 3.37125 3.928125 3.37125 4.875 3.75 C7.37480203 5.22047178 7.83316022 6.41403076 9 9 C7.67870176 8.265611 6.36816829 7.51183106 5.0625 6.75 C4.33160156 6.33234375 3.60070312 5.9146875 2.84765625 5.484375 C0.68142682 3.74406383 0.36405249 2.70438996 0 0 Z " fill="#F4DA73" transform="translate(294,94)"/>
<path d="M0 0 C0.33 0.66 0.66 1.32 1 2 C-0.98 4.97 -0.98 4.97 -3 8 C-3.99 7.67 -4.98 7.34 -6 7 C-4.02 4.69 -2.04 2.38 0 0 Z " fill="#EBB12A" transform="translate(267,343)"/>
<path d="M0 0 C3 2 3 2 3.6875 4.125 C3.8421875 5.053125 3.8421875 5.053125 4 6 C2.68 6.99 1.36 7.98 0 9 C0 6.03 0 3.06 0 0 Z " fill="#F7BE0D" transform="translate(115,292)"/>
<path d="M0 0 C0 3 0 3 -1.9375 5.1875 C-4 7 -4 7 -5 7 C-5 5.35 -5 3.7 -5 2 C-3.35 1.34 -1.7 0.68 0 0 Z " fill="#3F78B0" transform="translate(309,285)"/>
<path d="M0 0 C0.6875 1.6875 0.6875 1.6875 1 4 C-0.4375 6.75 -0.4375 6.75 -2 9 C-2.6875 7.3125 -2.6875 7.3125 -3 5 C-1.5625 2.25 -1.5625 2.25 0 0 Z " fill="#4295AA" transform="translate(163,237)"/>
<path d="M0 0 C1.65 0.33 3.3 0.66 5 1 C2.525 4.465 2.525 4.465 0 8 C-1.43088528 5.13822943 -0.59991697 3.06624227 0 0 Z " fill="#1C80D5" transform="translate(352,226)"/>
<path d="M0 0 C0.66 0 1.32 0 2 0 C2 0.66 2 1.32 2 2 C2.66 2 3.32 2 4 2 C4 1.34 4 0.68 4 0 C4.99 0.33 5.98 0.66 7 1 C5.71937515 2.7074998 4.38232443 4.37373596 3 6 C2.34 6 1.68 6 1 6 C0.67 4.02 0.34 2.04 0 0 Z " fill="#4AA2ED" transform="translate(380,194)"/>
<path d="M0 0 C4.21912747 0.4794463 6.79663178 1.16625119 10 4 C2.25 3.125 2.25 3.125 0 2 C0 1.34 0 0.68 0 0 Z " fill="#F5D668" transform="translate(272,82)"/>
<path d="M0 0 C0.66 0 1.32 0 2 0 C0.8141763 3.37503669 -0.27573689 5.64722731 -3 8 C-3 6.35 -3 4.7 -3 3 C-2.34 3 -1.68 3 -1 3 C-0.67 2.01 -0.34 1.02 0 0 Z " fill="#F0C857" transform="translate(388,372)"/>
<path d="M0 0 C0.66 0.33 1.32 0.66 2 1 C0.875 3.4375 0.875 3.4375 -1 6 C-4.1875 6.8125 -4.1875 6.8125 -7 7 C-4.66666667 4.66666667 -2.33333333 2.33333333 0 0 Z " fill="#4092B3" transform="translate(352,189)"/>
<path d="M0 0 C1.4370809 -0.05422947 2.87475462 -0.09289723 4.3125 -0.125 C5.11300781 -0.14820313 5.91351563 -0.17140625 6.73828125 -0.1953125 C9 0 9 0 12 2 C11.67 2.66 11.34 3.32 11 4 C10.01 3.67 9.02 3.34 8 3 C8 2.34 8 1.68 8 1 C3.545 1.495 3.545 1.495 -1 2 C-0.67 1.34 -0.34 0.68 0 0 Z " fill="#70BAED" transform="translate(395,158)"/>
<path d="M0 0 C0 3 0 3 -2.5 5.6875 C-3.325 6.450625 -4.15 7.21375 -5 8 C-4.1875 4.5625 -4.1875 4.5625 -3 1 C-2.01 0.67 -1.02 0.34 0 0 Z " fill="#5F778F" transform="translate(283,320)"/>
<path d="M0 0 C0.33 0.66 0.66 1.32 1 2 C-0.25 4.5625 -0.25 4.5625 -2 7 C-2.99 7.33 -3.98 7.66 -5 8 C-3.8141763 4.62496331 -2.72426311 2.35277269 0 0 Z " fill="#A69363" transform="translate(289,312)"/>
<path d="M0 0 C0.33 0.66 0.66 1.32 1 2 C0 5 0 5 -2.4375 6.75 C-3.7059375 7.36875 -3.7059375 7.36875 -5 8 C-5.66 7.67 -6.32 7.34 -7 7 C-4.69 4.69 -2.38 2.38 0 0 Z " fill="#478CA6" transform="translate(253,279)"/>
<path d="M0 0 C2.475 0.495 2.475 0.495 5 1 C5.33 2.98 5.66 4.96 6 7 C1.125 2.25 1.125 2.25 0 0 Z " fill="#3590B2" transform="translate(166,268)"/>
<path d="M0 0 C2 1 4 2 6 3 C5.67 4.32 5.34 5.64 5 7 C2.47411298 4.63707344 1.11179163 3.33537489 0 0 Z " fill="#F4D352" transform="translate(289,117)"/>
<path d="M0 0 C2 1 2 1 2.8515625 3.06640625 C3.10679687 3.89011719 3.36203125 4.71382813 3.625 5.5625 C3.88539063 6.38878906 4.14578125 7.21507813 4.4140625 8.06640625 C4.60742188 8.70449219 4.80078125 9.34257813 5 10 C3.0625 8.9375 3.0625 8.9375 1 7 C0.25 3.3125 0.25 3.3125 0 0 Z " fill="#F3D070" transform="translate(310,113)"/>
<path d="M0 0 C2.97 0.495 2.97 0.495 6 1 C6.33 2.32 6.66 3.64 7 5 C3.34683329 3.75023244 2.21934164 3.32901247 0 0 Z " fill="#F6D058" transform="translate(127,390)"/>
<path d="M0 0 C1.98 1.65 3.96 3.3 6 5 C5.67 5.66 5.34 6.32 5 7 C4.21625 6.525625 3.4325 6.05125 2.625 5.5625 C1.11051322 4.66101977 -0.4235897 3.78820515 -2 3 C-1.34 2.01 -0.68 1.02 0 0 Z " fill="#CAAF47" transform="translate(224,340)"/>
<path d="M0 0 C0.6875 1.8125 0.6875 1.8125 1 4 C-0.4375 5.75 -0.4375 5.75 -2 7 C-2.6875 5.1875 -2.6875 5.1875 -3 3 C-1.5625 1.25 -1.5625 1.25 0 0 Z " fill="#BFA550" transform="translate(293,307)"/>
<path d="M0 0 C2.97 0.495 2.97 0.495 6 1 C6 2.98 6 4.96 6 7 C1.125 2.25 1.125 2.25 0 0 Z " fill="#2081C7" transform="translate(188,295)"/>
<path d="M0 0 C0 2.62113708 -0.31292445 4.50935112 -1 7 C-2.32 7.33 -3.64 7.66 -5 8 C-3.8141763 4.62496331 -2.72426311 2.35277269 0 0 Z " fill="#D6A233" transform="translate(313,282)"/>
<path d="M0 0 C2.02054804 1.64169528 4.02043058 3.30911778 6 5 C6 5.33 6 5.66 6 6 C4.35 6 2.7 6 1 6 C0.67 4.02 0.34 2.04 0 0 Z " fill="#2885C4" transform="translate(227,273)"/>
<path d="M0 0 C0.66 0.33 1.32 0.66 2 1 C0.35 2.98 -1.3 4.96 -3 7 C-4 4 -4 4 -3 1 C-2.01 0.67 -1.02 0.34 0 0 Z " fill="#127EDA" transform="translate(341,243)"/>
<path d="M0 0 C0.66 0.33 1.32 0.66 2 1 C-0.46153846 4.81538462 -0.46153846 4.81538462 -3.1875 5.75 C-3.785625 5.8325 -4.38375 5.915 -5 6 C-3.63016497 2.83884224 -3.0109362 2.0072908 0 0 Z " fill="#DAB136" transform="translate(352,235)"/>
<path d="M0 0 C-0.6875 1.9375 -0.6875 1.9375 -2 4 C-4.625 4.75 -4.625 4.75 -7 5 C-6.34 4.67 -5.68 4.34 -5 4 C-4.67 3.01 -4.34 2.02 -4 1 C-2 0 -2 0 0 0 Z " fill="#358BB6" transform="translate(301,234)"/>
<path d="M0 0 C0.33 1.32 0.66 2.64 1 4 C-1.375 5.5625 -1.375 5.5625 -4 7 C-4.66 6.67 -5.32 6.34 -6 6 C-4.02 4.02 -2.04 2.04 0 0 Z " fill="#0C86E6" transform="translate(315,221)"/>
<path d="M0 0 C0.66 0 1.32 0 2 0 C2 0.99 2 1.98 2 3 C-1 5.1875 -1 5.1875 -4 7 C-4.66 6.67 -5.32 6.34 -6 6 C-4 4 -2 2 0 0 Z " fill="#4194AF" transform="translate(333,204)"/>
<path d="M0 0 C0.33 1.32 0.66 2.64 1 4 C0.01 4.66 -0.98 5.32 -2 6 C-2.99 5.67 -3.98 5.34 -5 5 C-3.35 3.35 -1.7 1.7 0 0 Z " fill="#F5D251" transform="translate(207,95)"/>
</svg>
